<svg width="8473" height="1669" xmlns="http://www.w3.org/2000/svg" xmlns:xlink="http://www.w3.org/1999/xlink" xml:space="preserve" overflow="hidden"><defs><linearGradient x1="-1267.22" y1="967.926" x2="7120.85" y2="967.926" gradientUnits="userSpaceOnUse" spreadMethod="reflect" id="fill0"><stop offset="0" stop-color="#545862" stop-opacity="1"/><stop offset="0.0149254" stop-color="#555963" stop-opacity="1"/><stop offset="0.0298507" stop-color="#575B65" stop-opacity="1"/><stop offset="0.0447761" stop-color="#595D67" stop-opacity="1"/><stop offset="0.0597015" stop-color="#5B5F69" stop-opacity="1"/><stop offset="0.0746269" stop-color="#5D616A" stop-opacity="1"/><stop offset="0.0895522" stop-color="#5E626C" stop-opacity="1"/><stop offset="0.104478" stop-color="#60646E" stop-opacity="1"/><stop offset="0.119403" stop-color="#626670" stop-opacity="1"/><stop offset="0.134328" stop-color="#646771" stop-opacity="1"/><stop offset="0.149254" stop-color="#656973" stop-opacity="1"/><stop offset="0.164179" stop-color="#676B74" stop-opacity="1"/><stop offset="0.179104" stop-color="#696C76" stop-opacity="1"/><stop offset="0.19403" stop-color="#6A6E77" stop-opacity="1"/><stop offset="0.208955" stop-color="#6C6F79" stop-opacity="1"/><stop offset="0.223881" stop-color="#6D717A" stop-opacity="1"/><stop offset="0.238806" stop-color="#6F727C" stop-opacity="1"/><stop offset="0.253731" stop-color="#70747D" stop-opacity="1"/><stop offset="0.268657" stop-color="#72757F" stop-opacity="1"/><stop offset="0.283582" stop-color="#737780" stop-opacity="1"/><stop offset="0.298507" stop-color="#757882" stop-opacity="1"/><stop offset="0.313433" stop-color="#767983" stop-opacity="1"/><stop offset="0.328358" stop-color="#777B84" stop-opacity="1"/><stop offset="0.343284" stop-color="#797C85" stop-opacity="1"/><stop offset="0.358209" stop-color="#7A7D87" stop-opacity="1"/><stop offset="0.373134" stop-color="#7B7F88" stop-opacity="1"/><stop offset="0.38806" stop-color="#7C8089" stop-opacity="1"/><stop offset="0.402985" stop-color="#7E818A" stop-opacity="1"/><stop offset="0.41791" stop-color="#7F828C" stop-opacity="1"/><stop offset="0.432836" stop-color="#80838D" stop-opacity="1"/><stop offset="0.447761" stop-color="#81848E" stop-opacity="1"/><stop offset="0.462687" stop-color="#82868F" stop-opacity="1"/><stop offset="0.477612" stop-color="#838790" stop-opacity="1"/><stop offset="0.492537" stop-color="#848891" stop-opacity="1"/><stop offset="0.507463" stop-color="#858992" stop-opacity="1"/><stop offset="0.522388" stop-color="#868A93" stop-opacity="1"/><stop offset="0.537313" stop-color="#878B94" stop-opacity="1"/><stop offset="0.552239" stop-color="#888C95" stop-opacity="1"/><stop offset="0.567164" stop-color="#898D96" stop-opacity="1"/><stop offset="0.58209" stop-color="#8A8D97" stop-opacity="1"/><stop offset="0.597015" stop-color="#8B8E97" stop-opacity="1"/><stop offset="0.61194" stop-color="#8C8F98" stop-opacity="1"/><stop offset="0.626866" stop-color="#8D9099" stop-opacity="1"/><stop offset="0.641791" stop-color="#8E919A" stop-opacity="1"/><stop offset="0.656716" stop-color="#8E919B" stop-opacity="1"/><stop offset="0.671642" stop-color="#8F929B" stop-opacity="1"/><stop offset="0.686567" stop-color="#90939C" stop-opacity="1"/><stop offset="0.701493" stop-color="#90949D" stop-opacity="1"/><stop offset="0.716418" stop-color="#91949D" stop-opacity="1"/><stop offset="0.731343" stop-color="#92959E" stop-opacity="1"/><stop offset="0.746269" stop-color="#92959E" stop-opacity="1"/><stop offset="0.761194" stop-color="#93969F" stop-opacity="1"/><stop offset="0.776119" stop-color="#9396A0" stop-opacity="1"/><stop offset="0.791045" stop-color="#9497A0" stop-opacity="1"/><stop offset="0.80597" stop-color="#9497A0" stop-opacity="1"/><stop offset="0.820895" stop-color="#9598A1" stop-opacity="1"/><stop offset="0.835821" stop-color="#9598A1" stop-opacity="1"/><stop offset="0.850746" stop-color="#9699A2" stop-opacity="1"/><stop offset="0.865672" stop-color="#9699A2" stop-opacity="1"/><stop offset="0.880597" stop-color="#9699A2" stop-opacity="1"/><stop offset="0.895522" stop-color="#979AA3" stop-opacity="1"/><stop offset="0.910448" stop-color="#979AA3" stop-opacity="1"/><stop offset="0.925373" stop-color="#979AA3" stop-opacity="1"/><stop offset="0.940298" stop-color="#979AA3" stop-opacity="1"/><stop offset="0.955224" stop-color="#979AA3" stop-opacity="1"/><stop offset="0.970149" stop-color="#979AA3" stop-opacity="1"/><stop offset="0.985075" stop-color="#979AA3" stop-opacity="1"/><stop offset="1" stop-color="#989BA4" stop-opacity="1"/></linearGradient><linearGradient x1="-1267.22" y1="967.926" x2="7120.85" y2="967.926" gradientUnits="userSpaceOnUse" spreadMethod="reflect" id="fill1"><stop offset="0" stop-color="#545862" stop-opacity="1"/><stop offset="0.0149254" stop-color="#555963" stop-opacity="1"/><stop offset="0.0298507" stop-color="#575B65" stop-opacity="1"/><stop offset="0.0447761" stop-color="#595D67" stop-opacity="1"/><stop offset="0.0597015" stop-color="#5B5F69" stop-opacity="1"/><stop offset="0.0746269" stop-color="#5D616A" stop-opacity="1"/><stop offset="0.0895522" stop-color="#5E626C" stop-opacity="1"/><stop offset="0.104478" stop-color="#60646E" stop-opacity="1"/><stop offset="0.119403" stop-color="#626670" stop-opacity="1"/><stop offset="0.134328" stop-color="#646771" stop-opacity="1"/><stop offset="0.149254" stop-color="#656973" stop-opacity="1"/><stop offset="0.164179" stop-color="#676B74" stop-opacity="1"/><stop offset="0.179104" stop-color="#696C76" stop-opacity="1"/><stop offset="0.19403" stop-color="#6A6E77" stop-opacity="1"/><stop offset="0.208955" stop-color="#6C6F79" stop-opacity="1"/><stop offset="0.223881" stop-color="#6D717A" stop-opacity="1"/><stop offset="0.238806" stop-color="#6F727C" stop-opacity="1"/><stop offset="0.253731" stop-color="#70747D" stop-opacity="1"/><stop offset="0.268657" stop-color="#72757F" stop-opacity="1"/><stop offset="0.283582" stop-color="#737780" stop-opacity="1"/><stop offset="0.298507" stop-color="#757882" stop-opacity="1"/><stop offset="0.313433" stop-color="#767983" stop-opacity="1"/><stop offset="0.328358" stop-color="#777B84" stop-opacity="1"/><stop offset="0.343284" stop-color="#797C85" stop-opacity="1"/><stop offset="0.358209" stop-color="#7A7D87" stop-opacity="1"/><stop offset="0.373134" stop-color="#7B7F88" stop-opacity="1"/><stop offset="0.38806" stop-color="#7C8089" stop-opacity="1"/><stop offset="0.402985" stop-color="#7E818A" stop-opacity="1"/><stop offset="0.41791" stop-color="#7F828C" stop-opacity="1"/><stop offset="0.432836" stop-color="#80838D" stop-opacity="1"/><stop offset="0.447761" stop-color="#81848E" stop-opacity="1"/><stop offset="0.462687" stop-color="#82868F" stop-opacity="1"/><stop offset="0.477612" stop-color="#838790" stop-opacity="1"/><stop offset="0.492537" stop-color="#848891" stop-opacity="1"/><stop offset="0.507463" stop-color="#858992" stop-opacity="1"/><stop offset="0.522388" stop-color="#868A93" stop-opacity="1"/><stop offset="0.537313" stop-color="#878B94" stop-opacity="1"/><stop offset="0.552239" stop-color="#888C95" stop-opacity="1"/><stop offset="0.567164" stop-color="#898D96" stop-opacity="1"/><stop offset="0.58209" stop-color="#8A8D97" stop-opacity="1"/><stop offset="0.597015" stop-color="#8B8E97" stop-opacity="1"/><stop offset="0.61194" stop-color="#8C8F98" stop-opacity="1"/><stop offset="0.626866" stop-color="#8D9099" stop-opacity="1"/><stop offset="0.641791" stop-color="#8E919A" stop-opacity="1"/><stop offset="0.656716" stop-color="#8E919B" stop-opacity="1"/><stop offset="0.671642" stop-color="#8F929B" stop-opacity="1"/><stop offset="0.686567" stop-color="#90939C" stop-opacity="1"/><stop offset="0.701493" stop-color="#90949D" stop-opacity="1"/><stop offset="0.716418" stop-color="#91949D" stop-opacity="1"/><stop offset="0.731343" stop-color="#92959E" stop-opacity="1"/><stop offset="0.746269" stop-color="#92959E" stop-opacity="1"/><stop offset="0.761194" stop-color="#93969F" stop-opacity="1"/><stop offset="0.776119" stop-color="#9396A0" stop-opacity="1"/><stop offset="0.791045" stop-color="#9497A0" stop-opacity="1"/><stop offset="0.80597" stop-color="#9497A0" stop-opacity="1"/><stop offset="0.820895" stop-color="#9598A1" stop-opacity="1"/><stop offset="0.835821" stop-color="#9598A1" stop-opacity="1"/><stop offset="0.850746" stop-color="#9699A2" stop-opacity="1"/><stop offset="0.865672" stop-color="#9699A2" stop-opacity="1"/><stop offset="0.880597" stop-color="#9699A2" stop-opacity="1"/><stop offset="0.895522" stop-color="#979AA3" stop-opacity="1"/><stop offset="0.910448" stop-color="#979AA3" stop-opacity="1"/><stop offset="0.925373" stop-color="#979AA3" stop-opacity="1"/><stop offset="0.940298" stop-color="#979AA3" stop-opacity="1"/><stop offset="0.955224" stop-color="#979AA3" stop-opacity="1"/><stop offset="0.970149" stop-color="#979AA3" stop-opacity="1"/><stop offset="0.985075" stop-color="#979AA3" stop-opacity="1"/><stop offset="1" stop-color="#989BA4" stop-opacity="1"/></linearGradient><linearGradient x1="-1267.22" y1="967.926" x2="7120.85" y2="967.926" gradientUnits="userSpaceOnUse" spreadMethod="reflect" id="fill2"><stop offset="0" stop-color="#545862" stop-opacity="1"/><stop offset="0.0149254" stop-color="#555963" stop-opacity="1"/><stop offset="0.0298507" stop-color="#575B65" stop-opacity="1"/><stop offset="0.0447761" stop-color="#595D67" stop-opacity="1"/><stop offset="0.0597015" stop-color="#5B5F69" stop-opacity="1"/><stop offset="0.0746269" stop-color="#5D616A" stop-opacity="1"/><stop offset="0.0895522" stop-color="#5E626C" stop-opacity="1"/><stop offset="0.104478" stop-color="#60646E" stop-opacity="1"/><stop offset="0.119403" stop-color="#626670" stop-opacity="1"/><stop offset="0.134328" stop-color="#646771" stop-opacity="1"/><stop offset="0.149254" stop-color="#656973" stop-opacity="1"/><stop offset="0.164179" stop-color="#676B74" stop-opacity="1"/><stop offset="0.179104" stop-color="#696C76" stop-opacity="1"/><stop offset="0.19403" stop-color="#6A6E77" stop-opacity="1"/><stop offset="0.208955" stop-color="#6C6F79" stop-opacity="1"/><stop offset="0.223881" stop-color="#6D717A" stop-opacity="1"/><stop offset="0.238806" stop-color="#6F727C" stop-opacity="1"/><stop offset="0.253731" stop-color="#70747D" stop-opacity="1"/><stop offset="0.268657" stop-color="#72757F" stop-opacity="1"/><stop offset="0.283582" stop-color="#737780" stop-opacity="1"/><stop offset="0.298507" stop-color="#757882" stop-opacity="1"/><stop offset="0.313433" stop-color="#767983" stop-opacity="1"/><stop offset="0.328358" stop-color="#777B84" stop-opacity="1"/><stop offset="0.343284" stop-color="#797C85" stop-opacity="1"/><stop offset="0.358209" stop-color="#7A7D87" stop-opacity="1"/><stop offset="0.373134" stop-color="#7B7F88" stop-opacity="1"/><stop offset="0.38806" stop-color="#7C8089" stop-opacity="1"/><stop offset="0.402985" stop-color="#7E818A" stop-opacity="1"/><stop offset="0.41791" stop-color="#7F828C" stop-opacity="1"/><stop offset="0.432836" stop-color="#80838D" stop-opacity="1"/><stop offset="0.447761" stop-color="#81848E" stop-opacity="1"/><stop offset="0.462687" stop-color="#82868F" stop-opacity="1"/><stop offset="0.477612" stop-color="#838790" stop-opacity="1"/><stop offset="0.492537" stop-color="#848891" stop-opacity="1"/><stop offset="0.507463" stop-color="#858992" stop-opacity="1"/><stop offset="0.522388" stop-color="#868A93" stop-opacity="1"/><stop offset="0.537313" stop-color="#878B94" stop-opacity="1"/><stop offset="0.552239" stop-color="#888C95" stop-opacity="1"/><stop offset="0.567164" stop-color="#898D96" stop-opacity="1"/><stop offset="0.58209" stop-color="#8A8D97" stop-opacity="1"/><stop offset="0.597015" stop-color="#8B8E97" stop-opacity="1"/><stop offset="0.61194" stop-color="#8C8F98" stop-opacity="1"/><stop offset="0.626866" stop-color="#8D9099" stop-opacity="1"/><stop offset="0.641791" stop-color="#8E919A" stop-opacity="1"/><stop offset="0.656716" stop-color="#8E919B" stop-opacity="1"/><stop offset="0.671642" stop-color="#8F929B" stop-opacity="1"/><stop offset="0.686567" stop-color="#90939C" stop-opacity="1"/><stop offset="0.701493" stop-color="#90949D" stop-opacity="1"/><stop offset="0.716418" stop-color="#91949D" stop-opacity="1"/><stop offset="0.731343" stop-color="#92959E" stop-opacity="1"/><stop offset="0.746269" stop-color="#92959E" stop-opacity="1"/><stop offset="0.761194" stop-color="#93969F" stop-opacity="1"/><stop offset="0.776119" stop-color="#9396A0" stop-opacity="1"/><stop offset="0.791045" stop-color="#9497A0" stop-opacity="1"/><stop offset="0.80597" stop-color="#9497A0" stop-opacity="1"/><stop offset="0.820895" stop-color="#9598A1" stop-opacity="1"/><stop offset="0.835821" stop-color="#9598A1" stop-opacity="1"/><stop offset="0.850746" stop-color="#9699A2" stop-opacity="1"/><stop offset="0.865672" stop-color="#9699A2" stop-opacity="1"/><stop offset="0.880597" stop-color="#9699A2" stop-opacity="1"/><stop offset="0.895522" stop-color="#979AA3" stop-opacity="1"/><stop offset="0.910448" stop-color="#979AA3" stop-opacity="1"/><stop offset="0.925373" stop-color="#979AA3" stop-opacity="1"/><stop offset="0.940298" stop-color="#979AA3" stop-opacity="1"/><stop offset="0.955224" stop-color="#979AA3" stop-opacity="1"/><stop offset="0.970149" stop-color="#979AA3" stop-opacity="1"/><stop offset="0.985075" stop-color="#979AA3" stop-opacity="1"/><stop offset="1" stop-color="#989BA4" stop-opacity="1"/></linearGradient></defs><g transform="translate(1310 -132)"><g><path d="M1062.03 792.43C1011.61 792.43 966.01 804.576 925.218 828.868 884.427 853.159 852.114 886.389 828.281 928.555 804.447 970.722 792.531 1017.93 792.531 1070.18 792.531 1123.35 804.447 1170.78 828.281 1212.49 852.114 1254.2 884.427 1287.43 925.218 1312.18 966.01 1336.93 1011.61 1349.31 1062.03 1349.31 1113.36 1349.31 1158.97 1336.93 1198.84 1312.18 1238.72 1287.43 1270.34 1254.2 1293.72 1212.49 1317.09 1170.78 1328.78 1123.35 1328.78 1070.18 1328.78 1017.93 1317.09 970.722 1293.72 928.555 1270.34 886.389 1238.72 853.159 1198.84 828.868 1158.97 804.576 1113.36 792.43 1062.03 792.43ZM132.76 792.43C81.4268 792.43 35.3643 804.576-5.42741 828.868-46.219 853.159-78.3024 886.389-101.677 928.555-125.053 970.722-136.74 1018.39-136.74 1071.56-136.74 1124.72-125.053 1172.16-101.677 1213.87-78.3024 1255.58-46.219 1288.58-5.42741 1312.87 35.3643 1337.16 81.4268 1349.31 132.76 1349.31 184.093 1349.31 229.927 1337.16 270.26 1312.87 310.593 1288.58 342.218 1255.58 365.135 1213.87 388.052 1172.16 399.51 1124.72 399.51 1071.56 399.51 1018.39 388.052 970.722 365.135 928.555 342.218 886.389 310.593 853.159 270.26 828.868 229.927 804.576 184.093 792.43 132.76 792.43ZM2970.3 791.055C2918.05 791.055 2872.45 802.972 2833.49 826.805 2794.53 850.639 2764.74 883.868 2744.11 926.493 2731.22 953.133 2722.36 982.012 2717.53 1013.13L2717.27 1015.18 3206.47 1015.18 3204.95 1001.84C3200.8 972.691 3192.71 945.513 3180.68 920.305 3161.43 879.972 3133.93 848.347 3098.18 825.43 3062.43 802.514 3019.8 791.055 2970.3 791.055ZM1768.55 694.805C1785.97 694.805 1799.95 700.076 1810.49 710.618 1821.03 721.159 1826.3 735.597 1826.3 753.93L1826.3 1387.81C1826.3 1406.14 1821.03 1420.58 1810.49 1431.12 1799.95 1441.66 1785.97 1446.93 1768.55 1446.93 1751.14 1446.93 1736.93 1441.66 1725.93 1431.12 1714.93 1420.58 1709.43 1406.14 1709.43 1387.81L1709.43 753.93C1709.43 735.597 1714.93 721.159 1725.93 710.618 1736.93 700.076 1751.14 694.805 1768.55 694.805ZM2970.3 687.93C3039.97 687.93 3100.7 703.743 3152.49 735.368 3204.28 766.993 3244.16 810.764 3272.11 866.68 3300.07 922.597 3314.05 986.305 3314.05 1057.81 3314.05 1073.39 3309.01 1085.99 3298.93 1095.62 3288.84 1105.24 3276.01 1110.06 3260.43 1110.06L2715.33 1110.06 2715.41 1111C2719.88 1149.33 2731.05 1184.31 2748.93 1215.93 2772.76 1258.1 2805.53 1291.1 2847.24 1314.93 2888.95 1338.76 2936.84 1350.68 2990.93 1350.68 3022.09 1350.68 3053.95 1345.18 3086.49 1334.18 3119.03 1323.18 3144.93 1309.43 3164.18 1292.93 3175.18 1284.68 3187.78 1280.33 3201.99 1279.87 3216.2 1279.41 3227.89 1283.31 3237.05 1291.56 3250.8 1303.47 3257.91 1316.31 3258.36 1330.06 3258.82 1343.81 3252.63 1355.72 3239.8 1365.81 3209.55 1391.47 3171.05 1412.56 3124.3 1429.06 3077.55 1445.56 3033.09 1453.81 2990.93 1453.81 2915.76 1453.81 2849.3 1437.53 2791.55 1404.99 2733.8 1372.45 2688.43 1327.31 2655.43 1269.56 2622.43 1211.81 2605.93 1145.81 2605.93 1071.56 2605.93 996.388 2621.51 930.159 2652.68 872.868 2683.84 815.576 2726.7 770.43 2781.24 737.43 2835.78 704.43 2898.8 687.93 2970.3 687.93ZM132.76 687.93C206.093 687.93 271.177 704.43 328.01 737.43 384.843 770.43 429.76 815.805 462.76 873.555 495.76 931.305 512.718 997.305 513.635 1071.56 513.635 1144.89 497.135 1210.43 464.135 1268.18 431.135 1325.93 385.989 1371.31 328.698 1404.31 271.406 1437.31 206.093 1453.81 132.76 1453.81 58.5101 1453.81-7.26066 1437.31-64.5523 1404.31-121.844 1371.31-166.99 1325.93-199.99 1268.18-232.99 1210.43-249.49 1144.89-249.49 1071.56-249.49 997.305-232.99 931.305-199.99 873.555-166.99 815.805-121.844 770.43-64.5523 737.43-7.26066 704.43 58.5101 687.93 132.76 687.93ZM-781.844 686.555C-717.677 686.555-660.157 700.076-609.282 727.118-558.407 754.159-518.073 793.805-488.282 846.055-458.49 898.305-443.594 962.472-443.594 1038.56L-443.594 1389.18C-443.594 1405.68-449.094 1419.43-460.094 1430.43-471.094 1441.43-484.844 1446.93-501.344 1446.93-518.761 1446.93-532.969 1441.43-543.969 1430.43-554.969 1419.43-560.469 1405.68-560.469 1389.18L-560.469 1038.56C-560.469 982.638-570.782 937.034-591.407 901.743-612.032 866.451-640.219 839.868-675.969 821.993-711.719 804.118-752.511 795.18-798.344 795.18-841.427 795.18-880.156 803.659-914.532 820.618-948.907 837.576-976.177 860.493-996.344 889.368-1016.51 918.243-1026.59 951.472-1026.59 989.055L-1026.59 1389.18C-1026.59 1406.6-1031.86 1420.58-1042.41 1431.12-1052.95 1441.66-1066.93 1446.93-1084.34 1446.93-1102.68 1446.93-1117.11 1441.66-1127.66 1431.12-1138.2 1420.58-1143.47 1406.6-1143.47 1389.18L-1143.47 753.93C-1143.47 735.597-1138.2 721.159-1127.66 710.618-1117.11 700.076-1102.68 694.805-1084.34 694.805-1066.93 694.805-1052.95 700.076-1042.41 710.618-1031.86 721.159-1026.59 735.597-1026.59 753.93L-1026.59 790.509-1023.64 787.285C-1000.97 763.33-974.459 743.045-944.094 726.43-895.511 699.847-841.427 686.555-781.844 686.555ZM2189.19 455.555C2205.69 455.555 2219.44 461.055 2230.44 472.055 2241.44 483.055 2246.94 496.805 2246.94 513.305L2246.94 722.305 2389.94 722.305C2405.52 722.305 2418.35 727.118 2428.44 736.743 2438.52 746.368 2443.56 758.514 2443.56 773.18 2443.56 786.93 2438.52 798.618 2428.44 808.243 2418.35 817.868 2405.52 822.68 2389.94 822.68L2246.94 822.68 2246.94 1181.56C2246.94 1224.64 2259.54 1260.39 2284.75 1288.81 2309.96 1317.22 2341.81 1331.43 2380.31 1331.43L2421.56 1331.43C2436.23 1331.43 2448.6 1336.93 2458.69 1347.93 2468.77 1358.93 2473.81 1372.68 2473.81 1389.18 2473.81 1406.6 2467.62 1420.58 2455.25 1431.12 2442.87 1441.66 2427.06 1446.93 2407.81 1446.93L2380.31 1446.93C2332.65 1446.93 2290.02 1435.47 2252.44 1412.56 2214.85 1389.64 2185.29 1358.01 2163.75 1317.68 2142.21 1277.35 2131.44 1231.97 2131.44 1181.56L2131.44 822.68 2050.31 822.68C2034.73 822.68 2021.9 817.868 2011.81 808.243 2001.73 798.618 1996.69 786.93 1996.69 773.18 1996.69 758.514 2001.73 746.368 2011.81 736.743 2021.9 727.118 2034.73 722.305 2050.31 722.305L2131.44 722.305 2131.44 513.305C2131.44 496.805 2136.71 483.055 2147.25 472.055 2157.79 461.055 2171.77 455.555 2189.19 455.555ZM1767.18 399.18C1788.26 399.18 1806.82 406.514 1822.86 421.18 1838.91 435.847 1846.93 454.639 1846.93 477.555 1846.93 499.555 1839.14 518.576 1823.55 534.618 1807.97 550.659 1789.18 558.68 1767.18 558.68 1745.18 558.68 1726.39 550.659 1710.8 534.618 1695.22 518.576 1687.43 499.555 1687.43 477.555 1687.43 454.639 1695.45 435.847 1711.49 421.18 1727.53 406.514 1746.09 399.18 1767.18 399.18ZM1383.78 373.055C1401.2 373.055 1415.41 378.326 1426.41 388.868 1437.41 399.409 1442.91 413.847 1442.91 432.18L1442.91 1074.31C1441.07 1145.81 1423.43 1210.2 1389.97 1267.49 1356.51 1324.78 1311.36 1370.16 1254.53 1403.62 1197.7 1437.08 1133.53 1453.81 1062.03 1453.81 989.614 1453.81 924.531 1437.08 866.781 1403.62 809.031 1370.16 763.427 1324.56 729.968 1266.81 696.51 1209.06 679.781 1143.51 679.781 1070.18 679.781 997.763 695.823 932.68 727.906 874.93 759.989 817.18 803.531 771.576 858.531 738.118 913.531 704.659 975.864 687.93 1045.53 687.93 1105.11 687.93 1158.97 700.534 1207.09 725.743 1255.22 750.951 1294.41 784.18 1324.66 825.43L1324.66 432.18C1324.66 413.847 1330.38 399.409 1341.84 388.868 1353.3 378.326 1367.28 373.055 1383.78 373.055Z" fill="url(#fill0)" fill-rule="evenodd"/><text fill="#000000" fill-opacity="0" font-family="Arial,Arial_MSFontService,sans-serif" font-size="1080.75" direction="ltr" writing-mode="lr-tb" x="-1143.47" y="1318.71">nodite</text><path d="M3477.45 1012.43 3796.45 1012.43C3812.95 1012.43 3826.7 1017.93 3837.7 1028.93 3848.7 1039.93 3854.2 1054.14 3854.2 1071.56 3854.2 1088.06 3848.7 1101.81 3837.7 1112.81 3826.7 1123.81 3812.95 1129.31 3796.45 1129.31L3477.45 1129.31C3461.86 1129.31 3448.34 1123.81 3436.89 1112.81 3425.43 1101.81 3419.7 1088.06 3419.7 1071.56 3419.7 1054.14 3425.43 1039.93 3436.89 1028.93 3448.34 1017.93 3461.86 1012.43 3477.45 1012.43Z" fill="url(#fill1)" fill-rule="evenodd"/><text fill="#000000" fill-opacity="0" font-family="Arial,Arial_MSFontService,sans-serif" font-size="116.875" direction="ltr" writing-mode="lr-tb" x="3419.7" y="1114.7">-</text><path d="M5170.99 792.43C5118.74 792.43 5072.45 804.347 5032.11 828.18 4991.78 852.014 4959.93 885.014 4936.55 927.18 4913.18 969.347 4901.49 1017.47 4901.49 1071.56 4901.49 1125.64 4913.18 1173.53 4936.55 1215.24 4959.93 1256.95 4991.78 1289.72 5032.11 1313.56 5072.45 1337.39 5118.74 1349.31 5170.99 1349.31 5223.24 1349.31 5269.3 1337.39 5309.18 1313.56 5349.05 1289.72 5380.45 1256.95 5403.36 1215.24 5426.28 1173.53 5437.74 1125.64 5437.74 1071.56 5437.74 1017.47 5426.28 969.347 5403.36 927.18 5380.45 885.014 5349.05 852.014 5309.18 828.18 5269.3 804.347 5223.24 792.43 5170.99 792.43ZM4504.23 694.805C4521.65 694.805 4535.62 700.076 4546.17 710.618 4556.71 721.159 4561.98 735.597 4561.98 753.93L4561.98 1387.81C4561.98 1406.14 4556.71 1420.58 4546.17 1431.12 4535.62 1441.66 4521.65 1446.93 4504.23 1446.93 4486.81 1446.93 4472.6 1441.66 4461.6 1431.12 4450.6 1420.58 4445.1 1406.14 4445.1 1387.81L4445.1 753.93C4445.1 735.597 4450.6 721.159 4461.6 710.618 4472.6 700.076 4486.81 694.805 4504.23 694.805ZM5170.99 687.93C5244.32 687.93 5309.64 704.201 5366.93 736.743 5424.22 769.284 5469.14 814.43 5501.68 872.18 5534.22 929.93 5550.95 996.388 5551.86 1071.56L5551.86 1357.56C5551.86 1430.89 5535.36 1497.12 5502.36 1556.24 5469.36 1615.37 5424.45 1662.12 5367.61 1696.49 5310.78 1730.87 5245.24 1748.05 5170.99 1748.06 5101.32 1748.05 5038.76 1734.76 4983.3 1708.18 4927.84 1681.6 4881.32 1644.47 4843.74 1596.81 4833.66 1584.89 4829.53 1571.83 4831.36 1557.62 4833.2 1543.41 4840.53 1532.18 4853.36 1523.93 4867.11 1514.76 4881.78 1511.56 4897.36 1514.31 4912.95 1517.06 4925.32 1524.85 4934.49 1537.68 4960.16 1569.76 4993.16 1595.43 5033.49 1614.68 5073.82 1633.93 5120.57 1643.56 5173.74 1643.56 5222.32 1643.56 5266.78 1631.87 5307.11 1608.49 5347.45 1585.12 5379.3 1551.43 5402.68 1507.43 5426.05 1463.43 5437.74 1411.18 5437.74 1350.68L5437.74 1286.96 5435.81 1290.56C5408.33 1339.89 5371.4 1378.95 5324.99 1407.74 5275.49 1438.45 5218.66 1453.81 5154.49 1453.81 5082.99 1453.81 5019.74 1437.53 4964.74 1404.99 4909.74 1372.45 4866.66 1327.31 4835.49 1269.56 4804.32 1211.81 4788.74 1145.81 4788.74 1071.56 4788.74 996.388 4805.24 929.93 4838.24 872.18 4871.24 814.43 4916.39 769.284 4973.68 736.743 5030.97 704.201 5096.74 687.93 5170.99 687.93ZM6787.99 455.555C6804.49 455.555 6818.24 461.055 6829.24 472.055 6840.24 483.055 6845.74 496.805 6845.74 513.305L6845.74 722.305 6988.74 722.305C7004.32 722.305 7017.16 727.118 7027.24 736.743 7037.32 746.368 7042.36 758.514 7042.36 773.18 7042.36 786.93 7037.32 798.618 7027.24 808.243 7017.16 817.868 7004.32 822.68 6988.74 822.68L6845.74 822.68 6845.74 1181.56C6845.74 1224.64 6858.34 1260.39 6883.55 1288.81 6908.76 1317.22 6940.61 1331.43 6979.11 1331.43L7020.36 1331.43C7035.03 1331.43 7047.41 1336.93 7057.49 1347.93 7067.57 1358.93 7072.61 1372.68 7072.61 1389.18 7072.61 1406.6 7066.43 1420.58 7054.05 1431.12 7041.68 1441.66 7025.86 1446.93 7006.61 1446.93L6979.11 1446.93C6931.45 1446.93 6888.82 1435.47 6851.24 1412.56 6813.66 1389.64 6784.09 1358.01 6762.55 1317.68 6741.01 1277.35 6730.24 1231.97 6730.24 1181.56L6730.24 822.68 6649.11 822.68C6633.53 822.68 6620.7 817.868 6610.61 808.243 6600.53 798.618 6595.49 786.93 6595.49 773.18 6595.49 758.514 6600.53 746.368 6610.61 736.743 6620.7 727.118 6633.53 722.305 6649.11 722.305L6730.24 722.305 6730.24 513.305C6730.24 496.805 6735.51 483.055 6746.05 472.055 6756.59 461.055 6770.57 455.555 6787.99 455.555ZM4502.85 399.18C4523.94 399.18 4542.5 406.514 4558.54 421.18 4574.58 435.847 4582.6 454.639 4582.6 477.555 4582.6 499.555 4574.81 518.576 4559.23 534.618 4543.65 550.659 4524.85 558.68 4502.85 558.68 4480.85 558.68 4462.06 550.659 4446.48 534.618 4430.9 518.576 4423.1 499.555 4423.1 477.555 4423.1 454.639 4431.12 435.847 4447.17 421.18 4463.21 406.514 4481.77 399.18 4502.85 399.18ZM5817.01 373.055C5834.43 373.055 5848.41 378.326 5858.95 388.868 5869.49 399.409 5874.76 413.847 5874.76 432.18L5874.76 753.93 5874.76 790.509 5877.71 787.285C5900.38 763.33 5926.9 743.045 5957.26 726.43 6005.84 699.847 6059.93 686.555 6119.51 686.555 6183.68 686.555 6241.2 700.076 6292.07 727.118 6342.95 754.159 6383.28 793.805 6413.07 846.055 6442.86 898.305 6457.76 962.472 6457.76 1038.56L6457.76 1389.18C6457.76 1405.68 6452.26 1419.43 6441.26 1430.43 6430.26 1441.43 6416.51 1446.93 6400.01 1446.93 6382.59 1446.93 6368.39 1441.43 6357.39 1430.43 6346.39 1419.43 6340.89 1405.68 6340.89 1389.18L6340.89 1038.56C6340.89 982.638 6330.57 937.034 6309.95 901.743 6289.32 866.451 6261.14 839.868 6225.39 821.993 6189.64 804.118 6148.84 795.18 6103.01 795.18 6059.93 795.18 6021.2 803.659 5986.82 820.618 5952.45 837.576 5925.18 860.493 5905.01 889.368 5884.84 918.243 5874.76 951.472 5874.76 989.055L5874.76 1092.18 5874.76 1389.18C5874.76 1406.6 5869.49 1420.58 5858.95 1431.12 5848.41 1441.66 5834.43 1446.93 5817.01 1446.93 5798.68 1446.93 5784.24 1441.66 5773.7 1431.12 5763.16 1420.58 5757.89 1406.6 5757.89 1389.18L5757.89 1092.18 5757.89 753.93 5757.89 432.18C5757.89 413.847 5763.16 399.409 5773.7 388.868 5784.24 378.326 5798.68 373.055 5817.01 373.055ZM4060.22 373.055C4076.72 373.055 4090.24 378.326 4100.78 388.868 4111.32 399.409 4116.59 413.389 4116.59 430.805L4116.59 1203.56C4116.59 1241.14 4124.16 1272.08 4139.28 1296.37 4154.41 1320.66 4173.89 1332.81 4197.72 1332.81L4232.09 1332.81C4246.76 1332.81 4258.68 1338.08 4267.84 1348.62 4277.01 1359.16 4281.59 1372.68 4281.59 1389.18 4281.59 1406.6 4274.95 1420.58 4261.66 1431.12 4248.36 1441.66 4231.18 1446.93 4210.09 1446.93L4197.72 1446.93C4159.22 1446.93 4125.3 1436.62 4095.97 1415.99 4066.64 1395.37 4043.72 1366.72 4027.22 1330.06 4010.72 1293.39 4002.47 1251.22 4002.47 1203.56L4002.47 430.805C4002.47 413.389 4007.74 399.409 4018.28 388.868 4028.82 378.326 4042.8 373.055 4060.22 373.055Z" fill="url(#fill2)" fill-rule="evenodd"/><text fill="#000000" fill-opacity="0" font-family="Arial,Arial_MSFontService,sans-serif" font-size="1375" direction="ltr" writing-mode="lr-tb" x="4002.47" y="1576.18">light</text></g></g></svg>